<mxfile host="app.diagrams.net" agent="Mozilla/5.0 (Windows NT 10.0; Win64; x64) AppleWebKit/537.36 (KHTML, like Gecko) Chrome/132.0.0.0 Safari/537.36" version="26.0.15">
  <diagram id="prtHgNgQTEPvFCAcTncT" name="Page-1">
    <mxGraphModel dx="1195" dy="643" grid="1" gridSize="10" guides="1" tooltips="1" connect="1" arrows="1" fold="1" page="1" pageScale="1" pageWidth="827" pageHeight="1169" math="0" shadow="0">
      <root>
        <mxCell id="0" />
        <mxCell id="1" parent="0" />
        <mxCell id="dNxyNK7c78bLwvsdeMH5-19" value="Fluxo de Consulta e Acompanhamento de Dietas com Nutricionista" style="swimlane;html=1;childLayout=stackLayout;resizeParent=1;resizeParentMax=0;horizontal=0;startSize=20;horizontalStack=0;" parent="1" vertex="1">
          <mxGeometry x="80" y="160" width="810" height="480" as="geometry" />
        </mxCell>
        <mxCell id="dNxyNK7c78bLwvsdeMH5-21" value="Nutricionista" style="swimlane;html=1;startSize=20;horizontal=0;" parent="dNxyNK7c78bLwvsdeMH5-19" vertex="1">
          <mxGeometry x="20" width="790" height="300" as="geometry" />
        </mxCell>
        <mxCell id="o1CjWtc-KM0zslplWTrt-28" value="" style="edgeStyle=orthogonalEdgeStyle;rounded=0;orthogonalLoop=1;jettySize=auto;html=1;endSize=4;" edge="1" parent="dNxyNK7c78bLwvsdeMH5-21" source="o1CjWtc-KM0zslplWTrt-13" target="o1CjWtc-KM0zslplWTrt-27">
          <mxGeometry relative="1" as="geometry" />
        </mxCell>
        <mxCell id="o1CjWtc-KM0zslplWTrt-13" value="" style="verticalLabelPosition=bottom;verticalAlign=top;html=1;shape=mxgraph.flowchart.on-page_reference;fillColor=#d5e8d4;strokeColor=#82b366;" vertex="1" parent="dNxyNK7c78bLwvsdeMH5-21">
          <mxGeometry x="40" y="130" width="20" height="20" as="geometry" />
        </mxCell>
        <mxCell id="o1CjWtc-KM0zslplWTrt-37" style="edgeStyle=orthogonalEdgeStyle;rounded=0;orthogonalLoop=1;jettySize=auto;html=1;entryX=0;entryY=0.5;entryDx=0;entryDy=0;endSize=4;" edge="1" parent="dNxyNK7c78bLwvsdeMH5-21" source="o1CjWtc-KM0zslplWTrt-27" target="o1CjWtc-KM0zslplWTrt-33">
          <mxGeometry relative="1" as="geometry">
            <Array as="points">
              <mxPoint x="125" y="170" />
            </Array>
          </mxGeometry>
        </mxCell>
        <mxCell id="o1CjWtc-KM0zslplWTrt-38" style="edgeStyle=orthogonalEdgeStyle;rounded=0;orthogonalLoop=1;jettySize=auto;html=1;entryX=0;entryY=0.5;entryDx=0;entryDy=0;endSize=4;" edge="1" parent="dNxyNK7c78bLwvsdeMH5-21" source="o1CjWtc-KM0zslplWTrt-27" target="o1CjWtc-KM0zslplWTrt-31">
          <mxGeometry relative="1" as="geometry">
            <mxPoint x="180" y="109.99999999999989" as="targetPoint" />
            <Array as="points">
              <mxPoint x="125" y="110" />
            </Array>
          </mxGeometry>
        </mxCell>
        <mxCell id="o1CjWtc-KM0zslplWTrt-27" value="Entende as necessidades e objetivos do paciente" style="rounded=1;whiteSpace=wrap;html=1;fontSize=8;fillColor=#f5f5f5;strokeColor=#666666;fontColor=#333333;" vertex="1" parent="dNxyNK7c78bLwvsdeMH5-21">
          <mxGeometry x="90" y="120" width="70" height="40" as="geometry" />
        </mxCell>
        <mxCell id="o1CjWtc-KM0zslplWTrt-78" style="edgeStyle=orthogonalEdgeStyle;rounded=0;orthogonalLoop=1;jettySize=auto;html=1;endSize=4;" edge="1" parent="dNxyNK7c78bLwvsdeMH5-21" source="o1CjWtc-KM0zslplWTrt-31" target="o1CjWtc-KM0zslplWTrt-51">
          <mxGeometry relative="1" as="geometry" />
        </mxCell>
        <mxCell id="o1CjWtc-KM0zslplWTrt-31" value="Prescreve exames" style="rounded=1;whiteSpace=wrap;html=1;fontSize=8;fillColor=#f5f5f5;strokeColor=#666666;fontColor=#333333;" vertex="1" parent="dNxyNK7c78bLwvsdeMH5-21">
          <mxGeometry x="180" y="90" width="70" height="40" as="geometry" />
        </mxCell>
        <mxCell id="o1CjWtc-KM0zslplWTrt-33" value="Planeja dieta" style="rounded=1;whiteSpace=wrap;html=1;fontSize=8;fillColor=#f5f5f5;strokeColor=#666666;fontColor=#333333;" vertex="1" parent="dNxyNK7c78bLwvsdeMH5-21">
          <mxGeometry x="180" y="150" width="70" height="40" as="geometry" />
        </mxCell>
        <mxCell id="o1CjWtc-KM0zslplWTrt-66" style="edgeStyle=orthogonalEdgeStyle;rounded=0;orthogonalLoop=1;jettySize=auto;html=1;entryX=0;entryY=0.5;entryDx=0;entryDy=0;endSize=4;" edge="1" parent="dNxyNK7c78bLwvsdeMH5-21" source="o1CjWtc-KM0zslplWTrt-46" target="o1CjWtc-KM0zslplWTrt-62">
          <mxGeometry relative="1" as="geometry">
            <Array as="points">
              <mxPoint x="430" y="80" />
            </Array>
          </mxGeometry>
        </mxCell>
        <mxCell id="o1CjWtc-KM0zslplWTrt-68" value="&lt;font style=&quot;font-size: 8px;&quot;&gt;SIM&lt;/font&gt;" style="edgeLabel;html=1;align=center;verticalAlign=middle;resizable=0;points=[];" vertex="1" connectable="0" parent="o1CjWtc-KM0zslplWTrt-66">
          <mxGeometry x="0.2728" y="2" relative="1" as="geometry">
            <mxPoint as="offset" />
          </mxGeometry>
        </mxCell>
        <mxCell id="o1CjWtc-KM0zslplWTrt-67" value="" style="edgeStyle=orthogonalEdgeStyle;rounded=0;orthogonalLoop=1;jettySize=auto;html=1;fontSize=8;endSize=4;" edge="1" parent="dNxyNK7c78bLwvsdeMH5-21" source="o1CjWtc-KM0zslplWTrt-46" target="o1CjWtc-KM0zslplWTrt-64">
          <mxGeometry relative="1" as="geometry" />
        </mxCell>
        <mxCell id="o1CjWtc-KM0zslplWTrt-69" value="&lt;font&gt;NÃO&lt;/font&gt;" style="edgeLabel;html=1;align=center;verticalAlign=middle;resizable=0;points=[];fontSize=8;" vertex="1" connectable="0" parent="o1CjWtc-KM0zslplWTrt-67">
          <mxGeometry x="-0.6733" relative="1" as="geometry">
            <mxPoint x="10" as="offset" />
          </mxGeometry>
        </mxCell>
        <mxCell id="o1CjWtc-KM0zslplWTrt-46" value="Seguiu a dieta?" style="rhombus;whiteSpace=wrap;html=1;labelPosition=center;verticalLabelPosition=bottom;align=center;verticalAlign=top;fontSize=8;fillColor=#ffe6cc;strokeColor=#d79b00;" vertex="1" parent="dNxyNK7c78bLwvsdeMH5-21">
          <mxGeometry x="410" y="120" width="40" height="40" as="geometry" />
        </mxCell>
        <mxCell id="o1CjWtc-KM0zslplWTrt-48" value="Dieta" style="shape=note;whiteSpace=wrap;html=1;backgroundOutline=1;darkOpacity=0.05;size=8;labelPosition=center;verticalLabelPosition=bottom;align=center;verticalAlign=top;fontSize=8;fillColor=#dae8fc;strokeColor=#6c8ebf;" vertex="1" parent="dNxyNK7c78bLwvsdeMH5-21">
          <mxGeometry x="190" y="220" width="25" height="30" as="geometry" />
        </mxCell>
        <mxCell id="o1CjWtc-KM0zslplWTrt-54" style="edgeStyle=orthogonalEdgeStyle;rounded=0;orthogonalLoop=1;jettySize=auto;html=1;entryX=0;entryY=0.5;entryDx=0;entryDy=0;endSize=4;" edge="1" parent="dNxyNK7c78bLwvsdeMH5-21" source="o1CjWtc-KM0zslplWTrt-51" target="o1CjWtc-KM0zslplWTrt-46">
          <mxGeometry relative="1" as="geometry" />
        </mxCell>
        <mxCell id="o1CjWtc-KM0zslplWTrt-51" value="&lt;font&gt;Aguarda retorno&lt;/font&gt;" style="verticalLabelPosition=top;verticalAlign=bottom;html=1;shape=mxgraph.flowchart.on-page_reference;fontSize=8;labelPosition=center;align=center;fillColor=#fff2cc;strokeColor=#d6b656;" vertex="1" parent="dNxyNK7c78bLwvsdeMH5-21">
          <mxGeometry x="350" y="130" width="20" height="20" as="geometry" />
        </mxCell>
        <mxCell id="o1CjWtc-KM0zslplWTrt-29" value="Prescrição" style="shape=note;whiteSpace=wrap;html=1;backgroundOutline=1;darkOpacity=0.05;size=8;labelPosition=center;verticalLabelPosition=top;align=center;verticalAlign=bottom;fontSize=8;fillColor=#dae8fc;strokeColor=#6c8ebf;" vertex="1" parent="dNxyNK7c78bLwvsdeMH5-21">
          <mxGeometry x="202.5" y="30" width="25" height="30" as="geometry" />
        </mxCell>
        <mxCell id="o1CjWtc-KM0zslplWTrt-39" value="" style="edgeStyle=orthogonalEdgeStyle;rounded=0;orthogonalLoop=1;jettySize=auto;html=1;dashed=1;dashPattern=1 4;endSize=4;curved=0;" edge="1" parent="dNxyNK7c78bLwvsdeMH5-21" source="o1CjWtc-KM0zslplWTrt-31" target="o1CjWtc-KM0zslplWTrt-29">
          <mxGeometry relative="1" as="geometry" />
        </mxCell>
        <mxCell id="o1CjWtc-KM0zslplWTrt-59" style="edgeStyle=orthogonalEdgeStyle;rounded=0;orthogonalLoop=1;jettySize=auto;html=1;entryX=0.5;entryY=0;entryDx=0;entryDy=0;entryPerimeter=0;endSize=4;dashed=1;dashPattern=1 4;exitX=0.25;exitY=1;exitDx=0;exitDy=0;" edge="1" parent="dNxyNK7c78bLwvsdeMH5-21" source="o1CjWtc-KM0zslplWTrt-33" target="o1CjWtc-KM0zslplWTrt-48">
          <mxGeometry relative="1" as="geometry" />
        </mxCell>
        <mxCell id="o1CjWtc-KM0zslplWTrt-74" value="" style="edgeStyle=orthogonalEdgeStyle;rounded=0;orthogonalLoop=1;jettySize=auto;html=1;endSize=4;dashed=1;dashPattern=1 4;" edge="1" parent="dNxyNK7c78bLwvsdeMH5-21" source="o1CjWtc-KM0zslplWTrt-62" target="o1CjWtc-KM0zslplWTrt-72">
          <mxGeometry relative="1" as="geometry" />
        </mxCell>
        <mxCell id="o1CjWtc-KM0zslplWTrt-62" value="Mantêm a dieta" style="rounded=1;whiteSpace=wrap;html=1;fontSize=8;fillColor=#f5f5f5;fontColor=#333333;strokeColor=#666666;" vertex="1" parent="dNxyNK7c78bLwvsdeMH5-21">
          <mxGeometry x="500" y="60" width="70" height="40" as="geometry" />
        </mxCell>
        <mxCell id="o1CjWtc-KM0zslplWTrt-75" value="" style="edgeStyle=orthogonalEdgeStyle;rounded=0;orthogonalLoop=1;jettySize=auto;html=1;endSize=4;" edge="1" parent="dNxyNK7c78bLwvsdeMH5-21" source="o1CjWtc-KM0zslplWTrt-64" target="o1CjWtc-KM0zslplWTrt-73">
          <mxGeometry relative="1" as="geometry" />
        </mxCell>
        <mxCell id="o1CjWtc-KM0zslplWTrt-64" value="Entende o motivo e restrições" style="rounded=1;whiteSpace=wrap;html=1;fontSize=8;fillColor=#f5f5f5;fontColor=#333333;strokeColor=#666666;" vertex="1" parent="dNxyNK7c78bLwvsdeMH5-21">
          <mxGeometry x="500" y="120" width="70" height="40" as="geometry" />
        </mxCell>
        <mxCell id="o1CjWtc-KM0zslplWTrt-72" value="Dieta" style="shape=note;whiteSpace=wrap;html=1;backgroundOutline=1;darkOpacity=0.05;size=8;fontSize=8;labelPosition=center;verticalLabelPosition=top;align=center;verticalAlign=bottom;fillColor=#dae8fc;strokeColor=#6c8ebf;" vertex="1" parent="dNxyNK7c78bLwvsdeMH5-21">
          <mxGeometry x="622.5" y="65" width="25" height="30" as="geometry" />
        </mxCell>
        <mxCell id="o1CjWtc-KM0zslplWTrt-76" value="" style="edgeStyle=orthogonalEdgeStyle;rounded=0;orthogonalLoop=1;jettySize=auto;html=1;endSize=4;dashed=1;dashPattern=1 4;" edge="1" parent="dNxyNK7c78bLwvsdeMH5-21" source="o1CjWtc-KM0zslplWTrt-73" target="o1CjWtc-KM0zslplWTrt-72">
          <mxGeometry relative="1" as="geometry" />
        </mxCell>
        <mxCell id="o1CjWtc-KM0zslplWTrt-73" value="Atualiza dieta" style="rounded=1;whiteSpace=wrap;html=1;fontSize=8;fillColor=#f5f5f5;fontColor=#333333;strokeColor=#666666;" vertex="1" parent="dNxyNK7c78bLwvsdeMH5-21">
          <mxGeometry x="600" y="120" width="70" height="40" as="geometry" />
        </mxCell>
        <mxCell id="o1CjWtc-KM0zslplWTrt-79" style="edgeStyle=orthogonalEdgeStyle;rounded=0;orthogonalLoop=1;jettySize=auto;html=1;entryX=0;entryY=0.5;entryDx=0;entryDy=0;entryPerimeter=0;endSize=4;" edge="1" parent="dNxyNK7c78bLwvsdeMH5-21" source="o1CjWtc-KM0zslplWTrt-33" target="o1CjWtc-KM0zslplWTrt-51">
          <mxGeometry relative="1" as="geometry" />
        </mxCell>
        <mxCell id="o1CjWtc-KM0zslplWTrt-26" style="edgeStyle=orthogonalEdgeStyle;rounded=0;orthogonalLoop=1;jettySize=auto;html=1;entryX=0.5;entryY=1;entryDx=0;entryDy=0;entryPerimeter=0;exitX=0.5;exitY=0;exitDx=0;exitDy=0;dashed=1;endSize=4;" edge="1" parent="dNxyNK7c78bLwvsdeMH5-19" source="o1CjWtc-KM0zslplWTrt-24" target="o1CjWtc-KM0zslplWTrt-13">
          <mxGeometry relative="1" as="geometry">
            <Array as="points">
              <mxPoint x="299" y="280" />
              <mxPoint x="70" y="280" />
            </Array>
          </mxGeometry>
        </mxCell>
        <mxCell id="o1CjWtc-KM0zslplWTrt-58" style="edgeStyle=orthogonalEdgeStyle;rounded=0;orthogonalLoop=1;jettySize=auto;html=1;entryX=0.25;entryY=0;entryDx=0;entryDy=0;endSize=4;dashed=1;dashPattern=1 4;" edge="1" parent="dNxyNK7c78bLwvsdeMH5-19" source="o1CjWtc-KM0zslplWTrt-48" target="o1CjWtc-KM0zslplWTrt-45">
          <mxGeometry relative="1" as="geometry">
            <Array as="points">
              <mxPoint x="388" y="235" />
              <mxPoint x="388" y="370" />
            </Array>
          </mxGeometry>
        </mxCell>
        <mxCell id="o1CjWtc-KM0zslplWTrt-77" style="edgeStyle=orthogonalEdgeStyle;rounded=0;orthogonalLoop=1;jettySize=auto;html=1;entryX=0.25;entryY=1;entryDx=0;entryDy=0;endSize=4;dashed=1;dashPattern=1 4;" edge="1" parent="dNxyNK7c78bLwvsdeMH5-19" source="o1CjWtc-KM0zslplWTrt-72" target="o1CjWtc-KM0zslplWTrt-45">
          <mxGeometry relative="1" as="geometry">
            <Array as="points">
              <mxPoint x="780" y="80" />
              <mxPoint x="780" y="470" />
              <mxPoint x="388" y="470" />
              <mxPoint x="388" y="410" />
            </Array>
          </mxGeometry>
        </mxCell>
        <mxCell id="o1CjWtc-KM0zslplWTrt-63" style="edgeStyle=orthogonalEdgeStyle;rounded=0;orthogonalLoop=1;jettySize=auto;html=1;entryX=0.5;entryY=1;entryDx=0;entryDy=0;entryPerimeter=0;dashed=1;endSize=4;" edge="1" parent="dNxyNK7c78bLwvsdeMH5-19" source="o1CjWtc-KM0zslplWTrt-47" target="o1CjWtc-KM0zslplWTrt-51">
          <mxGeometry relative="1" as="geometry">
            <Array as="points">
              <mxPoint x="650" y="200" />
              <mxPoint x="380" y="200" />
            </Array>
          </mxGeometry>
        </mxCell>
        <mxCell id="dNxyNK7c78bLwvsdeMH5-22" value="Paciente" style="swimlane;html=1;startSize=20;horizontal=0;" parent="dNxyNK7c78bLwvsdeMH5-19" vertex="1">
          <mxGeometry x="20" y="300" width="790" height="180" as="geometry" />
        </mxCell>
        <mxCell id="o1CjWtc-KM0zslplWTrt-11" value="" style="edgeStyle=orthogonalEdgeStyle;rounded=0;orthogonalLoop=1;jettySize=auto;html=1;endSize=4;" edge="1" parent="dNxyNK7c78bLwvsdeMH5-22" source="o1CjWtc-KM0zslplWTrt-9" target="o1CjWtc-KM0zslplWTrt-10">
          <mxGeometry relative="1" as="geometry" />
        </mxCell>
        <mxCell id="o1CjWtc-KM0zslplWTrt-9" value="" style="verticalLabelPosition=bottom;verticalAlign=top;html=1;shape=mxgraph.flowchart.on-page_reference;fillColor=#d5e8d4;strokeColor=#82b366;" vertex="1" parent="dNxyNK7c78bLwvsdeMH5-22">
          <mxGeometry x="40" y="80" width="20" height="20" as="geometry" />
        </mxCell>
        <mxCell id="o1CjWtc-KM0zslplWTrt-23" value="" style="edgeStyle=orthogonalEdgeStyle;rounded=0;orthogonalLoop=1;jettySize=auto;html=1;endSize=4;" edge="1" parent="dNxyNK7c78bLwvsdeMH5-22" source="o1CjWtc-KM0zslplWTrt-10" target="o1CjWtc-KM0zslplWTrt-22">
          <mxGeometry relative="1" as="geometry" />
        </mxCell>
        <mxCell id="o1CjWtc-KM0zslplWTrt-10" value="Marca consulta" style="rounded=1;whiteSpace=wrap;html=1;fontSize=8;fillColor=#f5f5f5;fontColor=#333333;strokeColor=#666666;" vertex="1" parent="dNxyNK7c78bLwvsdeMH5-22">
          <mxGeometry x="90" y="70" width="70" height="40" as="geometry" />
        </mxCell>
        <mxCell id="o1CjWtc-KM0zslplWTrt-25" value="" style="edgeStyle=orthogonalEdgeStyle;rounded=0;orthogonalLoop=1;jettySize=auto;html=1;endSize=4;" edge="1" parent="dNxyNK7c78bLwvsdeMH5-22" source="o1CjWtc-KM0zslplWTrt-22" target="o1CjWtc-KM0zslplWTrt-24">
          <mxGeometry relative="1" as="geometry" />
        </mxCell>
        <mxCell id="o1CjWtc-KM0zslplWTrt-22" value="Aguarda data&lt;div&gt;da consulta&lt;/div&gt;" style="verticalLabelPosition=bottom;verticalAlign=top;html=1;shape=mxgraph.flowchart.on-page_reference;fontSize=8;fillColor=#fff2cc;strokeColor=#d6b656;" vertex="1" parent="dNxyNK7c78bLwvsdeMH5-22">
          <mxGeometry x="190" y="80" width="20" height="20" as="geometry" />
        </mxCell>
        <mxCell id="o1CjWtc-KM0zslplWTrt-44" value="" style="edgeStyle=orthogonalEdgeStyle;rounded=0;orthogonalLoop=1;jettySize=auto;html=1;endSize=4;" edge="1" parent="dNxyNK7c78bLwvsdeMH5-22" source="o1CjWtc-KM0zslplWTrt-24">
          <mxGeometry relative="1" as="geometry">
            <mxPoint x="350" y="90" as="targetPoint" />
          </mxGeometry>
        </mxCell>
        <mxCell id="o1CjWtc-KM0zslplWTrt-24" value="Comparece a consulta" style="rounded=1;whiteSpace=wrap;html=1;fontSize=8;fillColor=#f5f5f5;fontColor=#333333;strokeColor=#666666;" vertex="1" parent="dNxyNK7c78bLwvsdeMH5-22">
          <mxGeometry x="244" y="70" width="70" height="40" as="geometry" />
        </mxCell>
        <mxCell id="o1CjWtc-KM0zslplWTrt-50" value="" style="edgeStyle=orthogonalEdgeStyle;rounded=0;orthogonalLoop=1;jettySize=auto;html=1;endSize=4;" edge="1" parent="dNxyNK7c78bLwvsdeMH5-22" source="o1CjWtc-KM0zslplWTrt-45" target="o1CjWtc-KM0zslplWTrt-49">
          <mxGeometry relative="1" as="geometry" />
        </mxCell>
        <mxCell id="o1CjWtc-KM0zslplWTrt-45" value="Recebe a dieta" style="rounded=1;whiteSpace=wrap;html=1;fontSize=8;fillColor=#f5f5f5;fontColor=#333333;strokeColor=#666666;" vertex="1" parent="dNxyNK7c78bLwvsdeMH5-22">
          <mxGeometry x="350" y="70" width="70" height="40" as="geometry" />
        </mxCell>
        <mxCell id="o1CjWtc-KM0zslplWTrt-85" value="" style="edgeStyle=orthogonalEdgeStyle;rounded=0;orthogonalLoop=1;jettySize=auto;html=1;endSize=4;" edge="1" parent="dNxyNK7c78bLwvsdeMH5-22" source="o1CjWtc-KM0zslplWTrt-49" target="o1CjWtc-KM0zslplWTrt-84">
          <mxGeometry relative="1" as="geometry" />
        </mxCell>
        <mxCell id="o1CjWtc-KM0zslplWTrt-49" value="Passagem de tempo" style="verticalLabelPosition=bottom;verticalAlign=top;html=1;shape=mxgraph.flowchart.on-page_reference;fontSize=8;fillColor=#fff2cc;strokeColor=#d6b656;" vertex="1" parent="dNxyNK7c78bLwvsdeMH5-22">
          <mxGeometry x="460" y="80" width="20" height="20" as="geometry" />
        </mxCell>
        <mxCell id="o1CjWtc-KM0zslplWTrt-86" style="edgeStyle=orthogonalEdgeStyle;rounded=0;orthogonalLoop=1;jettySize=auto;html=1;entryX=0;entryY=0.5;entryDx=0;entryDy=0;fontSize=8;endSize=4;" edge="1" parent="dNxyNK7c78bLwvsdeMH5-22" source="o1CjWtc-KM0zslplWTrt-84" target="o1CjWtc-KM0zslplWTrt-47">
          <mxGeometry relative="1" as="geometry">
            <Array as="points">
              <mxPoint x="540" y="30" />
            </Array>
          </mxGeometry>
        </mxCell>
        <mxCell id="o1CjWtc-KM0zslplWTrt-87" value="SIM" style="edgeLabel;html=1;align=center;verticalAlign=middle;resizable=0;points=[];fontSize=8;" vertex="1" connectable="0" parent="o1CjWtc-KM0zslplWTrt-86">
          <mxGeometry x="0.1104" relative="1" as="geometry">
            <mxPoint x="-15" y="20" as="offset" />
          </mxGeometry>
        </mxCell>
        <mxCell id="o1CjWtc-KM0zslplWTrt-89" value="" style="edgeStyle=orthogonalEdgeStyle;rounded=0;orthogonalLoop=1;jettySize=auto;html=1;entryX=0;entryY=0.5;entryDx=0;entryDy=0;entryPerimeter=0;endSize=4;" edge="1" parent="dNxyNK7c78bLwvsdeMH5-22" source="o1CjWtc-KM0zslplWTrt-84" target="o1CjWtc-KM0zslplWTrt-90">
          <mxGeometry relative="1" as="geometry">
            <mxPoint x="600" y="90" as="targetPoint" />
          </mxGeometry>
        </mxCell>
        <mxCell id="o1CjWtc-KM0zslplWTrt-92" value="NÃO" style="edgeLabel;html=1;align=center;verticalAlign=middle;resizable=0;points=[];fontSize=8;" vertex="1" connectable="0" parent="o1CjWtc-KM0zslplWTrt-89">
          <mxGeometry x="-0.1604" y="1" relative="1" as="geometry">
            <mxPoint as="offset" />
          </mxGeometry>
        </mxCell>
        <mxCell id="o1CjWtc-KM0zslplWTrt-84" value="Continuar com projeto?" style="rhombus;whiteSpace=wrap;html=1;labelPosition=center;verticalLabelPosition=bottom;align=center;verticalAlign=top;fontSize=8;fillColor=#ffe6cc;strokeColor=#d79b00;" vertex="1" parent="dNxyNK7c78bLwvsdeMH5-22">
          <mxGeometry x="520" y="70" width="40" height="40" as="geometry" />
        </mxCell>
        <mxCell id="o1CjWtc-KM0zslplWTrt-47" value="Marca retorno" style="rounded=1;whiteSpace=wrap;html=1;fontSize=8;fillColor=#f5f5f5;fontColor=#333333;strokeColor=#666666;" vertex="1" parent="dNxyNK7c78bLwvsdeMH5-22">
          <mxGeometry x="600" y="10" width="70" height="40" as="geometry" />
        </mxCell>
        <mxCell id="o1CjWtc-KM0zslplWTrt-90" value="Fim do projeto" style="verticalLabelPosition=bottom;verticalAlign=top;html=1;shape=mxgraph.flowchart.on-page_reference;fontSize=8;fillColor=#f8cecc;strokeColor=#b85450;" vertex="1" parent="dNxyNK7c78bLwvsdeMH5-22">
          <mxGeometry x="625" y="80" width="20" height="20" as="geometry" />
        </mxCell>
        <mxCell id="o1CjWtc-KM0zslplWTrt-91" style="edgeStyle=orthogonalEdgeStyle;rounded=0;orthogonalLoop=1;jettySize=auto;html=1;entryX=0.75;entryY=1;entryDx=0;entryDy=0;dashed=1;endSize=4;" edge="1" parent="dNxyNK7c78bLwvsdeMH5-19" source="o1CjWtc-KM0zslplWTrt-73" target="o1CjWtc-KM0zslplWTrt-45">
          <mxGeometry relative="1" as="geometry">
            <Array as="points">
              <mxPoint x="750" y="140" />
              <mxPoint x="750" y="460" />
              <mxPoint x="422" y="460" />
            </Array>
          </mxGeometry>
        </mxCell>
        <mxCell id="o1CjWtc-KM0zslplWTrt-93" style="edgeStyle=orthogonalEdgeStyle;rounded=0;orthogonalLoop=1;jettySize=auto;html=1;entryX=0.75;entryY=0;entryDx=0;entryDy=0;dashed=1;endSize=4;" edge="1" parent="dNxyNK7c78bLwvsdeMH5-19" source="o1CjWtc-KM0zslplWTrt-33" target="o1CjWtc-KM0zslplWTrt-45">
          <mxGeometry relative="1" as="geometry">
            <Array as="points">
              <mxPoint x="235" y="210" />
              <mxPoint x="422" y="210" />
            </Array>
          </mxGeometry>
        </mxCell>
      </root>
    </mxGraphModel>
  </diagram>
</mxfile>
